<mxfile host="app.diagrams.net" modified="2024-02-25T23:20:19.435Z" agent="Mozilla/5.0 (X11; Linux x86_64; rv:123.0) Gecko/20100101 Firefox/123.0" etag="ONcL4-L5w1ILuMh7Xy6T" version="23.1.6" type="device">
  <diagram name="Page-1" id="dw2phjH7J4A_EAC2qikA">
    <mxGraphModel dx="1410" dy="1854" grid="1" gridSize="10" guides="1" tooltips="1" connect="1" arrows="1" fold="1" page="1" pageScale="1" pageWidth="850" pageHeight="1100" math="0" shadow="0">
      <root>
        <mxCell id="0" />
        <mxCell id="1" parent="0" />
        <mxCell id="4MAXD7GSshLCcGs3XlZ2-303" value="VPC" style="points=[[0,0],[0.25,0],[0.5,0],[0.75,0],[1,0],[1,0.25],[1,0.5],[1,0.75],[1,1],[0.75,1],[0.5,1],[0.25,1],[0,1],[0,0.75],[0,0.5],[0,0.25]];outlineConnect=0;gradientColor=none;html=1;whiteSpace=wrap;fontSize=12;fontStyle=0;container=1;pointerEvents=0;collapsible=0;recursiveResize=0;shape=mxgraph.aws4.group;grIcon=mxgraph.aws4.group_vpc2;strokeColor=#8C4FFF;fillColor=none;verticalAlign=top;align=left;spacingLeft=30;fontColor=#AAB7B8;dashed=0;movable=1;resizable=1;rotatable=1;deletable=1;editable=1;locked=0;connectable=1;" vertex="1" parent="1">
          <mxGeometry x="110" y="180" width="360" height="480" as="geometry" />
        </mxCell>
        <mxCell id="4MAXD7GSshLCcGs3XlZ2-304" value="AWS Cloud" style="points=[[0,0],[0.25,0],[0.5,0],[0.75,0],[1,0],[1,0.25],[1,0.5],[1,0.75],[1,1],[0.75,1],[0.5,1],[0.25,1],[0,1],[0,0.75],[0,0.5],[0,0.25]];outlineConnect=0;gradientColor=none;html=1;whiteSpace=wrap;fontSize=12;fontStyle=0;container=1;pointerEvents=0;collapsible=0;recursiveResize=0;shape=mxgraph.aws4.group;grIcon=mxgraph.aws4.group_aws_cloud_alt;strokeColor=#232F3E;fillColor=none;verticalAlign=top;align=left;spacingLeft=30;fontColor=#232F3E;dashed=0;movable=1;resizable=1;rotatable=1;deletable=1;editable=1;locked=0;connectable=1;" vertex="1" parent="1">
          <mxGeometry x="100" y="110" width="390" height="580" as="geometry" />
        </mxCell>
        <mxCell id="4MAXD7GSshLCcGs3XlZ2-390" value="" style="sketch=0;outlineConnect=0;fontColor=#232F3E;gradientColor=none;fillColor=#8C4FFF;strokeColor=none;dashed=0;verticalLabelPosition=bottom;verticalAlign=top;align=center;html=1;fontSize=12;fontStyle=0;aspect=fixed;pointerEvents=1;shape=mxgraph.aws4.internet_gateway;" vertex="1" parent="4MAXD7GSshLCcGs3XlZ2-304">
          <mxGeometry x="171" y="42" width="48" height="48" as="geometry" />
        </mxCell>
        <mxCell id="4MAXD7GSshLCcGs3XlZ2-337" value="" style="sketch=0;outlineConnect=0;fontColor=#232F3E;gradientColor=none;fillColor=#232F3D;strokeColor=none;dashed=0;verticalLabelPosition=bottom;verticalAlign=top;align=center;html=1;fontSize=12;fontStyle=0;aspect=fixed;pointerEvents=1;shape=mxgraph.aws4.internet_alt2;" vertex="1" parent="1">
          <mxGeometry x="256" y="2" width="78" height="78" as="geometry" />
        </mxCell>
        <mxCell id="4MAXD7GSshLCcGs3XlZ2-338" value="Front-end" style="points=[[0,0],[0.25,0],[0.5,0],[0.75,0],[1,0],[1,0.25],[1,0.5],[1,0.75],[1,1],[0.75,1],[0.5,1],[0.25,1],[0,1],[0,0.75],[0,0.5],[0,0.25]];outlineConnect=0;gradientColor=none;html=1;whiteSpace=wrap;fontSize=12;fontStyle=0;container=0;pointerEvents=0;collapsible=0;recursiveResize=0;shape=mxgraph.aws4.group;grIcon=mxgraph.aws4.group_security_group;grStroke=0;strokeColor=#7AA116;fillColor=#F2F6E8;verticalAlign=top;align=left;spacingLeft=30;fontColor=#248814;dashed=0;" vertex="1" parent="1">
          <mxGeometry x="130" y="204" width="320" height="206" as="geometry" />
        </mxCell>
        <mxCell id="4MAXD7GSshLCcGs3XlZ2-339" value="" style="sketch=0;outlineConnect=0;fontColor=#232F3E;gradientColor=none;fillColor=#232F3D;strokeColor=none;dashed=0;verticalLabelPosition=bottom;verticalAlign=top;align=center;html=1;fontSize=12;fontStyle=0;aspect=fixed;pointerEvents=1;shape=mxgraph.aws4.user;" vertex="1" parent="1">
          <mxGeometry x="256" y="-150" width="78" height="78" as="geometry" />
        </mxCell>
        <mxCell id="4MAXD7GSshLCcGs3XlZ2-340" value="" style="endArrow=none;dashed=1;html=1;rounded=0;" edge="1" parent="1" source="4MAXD7GSshLCcGs3XlZ2-337" target="4MAXD7GSshLCcGs3XlZ2-339">
          <mxGeometry width="50" height="50" relative="1" as="geometry">
            <mxPoint x="558.34" y="232" as="sourcePoint" />
            <mxPoint x="456.34000000000003" y="100" as="targetPoint" />
          </mxGeometry>
        </mxCell>
        <mxCell id="4MAXD7GSshLCcGs3XlZ2-343" value="" style="sketch=0;outlineConnect=0;fontColor=#232F3E;gradientColor=none;fillColor=#8C4FFF;strokeColor=none;dashed=0;verticalLabelPosition=bottom;verticalAlign=top;align=center;html=1;fontSize=12;fontStyle=0;aspect=fixed;pointerEvents=1;shape=mxgraph.aws4.nat_gateway;" vertex="1" parent="1">
          <mxGeometry x="350" y="274" width="66" height="66" as="geometry" />
        </mxCell>
        <mxCell id="4MAXD7GSshLCcGs3XlZ2-344" value="Back-end &amp;amp; DB" style="points=[[0,0],[0.25,0],[0.5,0],[0.75,0],[1,0],[1,0.25],[1,0.5],[1,0.75],[1,1],[0.75,1],[0.5,1],[0.25,1],[0,1],[0,0.75],[0,0.5],[0,0.25]];outlineConnect=0;gradientColor=none;html=1;whiteSpace=wrap;fontSize=12;fontStyle=0;container=0;pointerEvents=0;collapsible=0;recursiveResize=0;shape=mxgraph.aws4.group;grIcon=mxgraph.aws4.group_security_group;grStroke=0;strokeColor=#00A4A6;fillColor=#E6F6F7;verticalAlign=top;align=left;spacingLeft=30;fontColor=#147EBA;dashed=0;" vertex="1" parent="1">
          <mxGeometry x="130" y="420" width="320" height="210" as="geometry" />
        </mxCell>
        <mxCell id="4MAXD7GSshLCcGs3XlZ2-345" value="" style="sketch=0;points=[[0,0,0],[0.25,0,0],[0.5,0,0],[0.75,0,0],[1,0,0],[0,1,0],[0.25,1,0],[0.5,1,0],[0.75,1,0],[1,1,0],[0,0.25,0],[0,0.5,0],[0,0.75,0],[1,0.25,0],[1,0.5,0],[1,0.75,0]];outlineConnect=0;fontColor=#232F3E;fillColor=#C925D1;strokeColor=#ffffff;dashed=0;verticalLabelPosition=bottom;verticalAlign=top;align=center;html=1;fontSize=12;fontStyle=0;aspect=fixed;shape=mxgraph.aws4.resourceIcon;resIcon=mxgraph.aws4.rds;" vertex="1" parent="1">
          <mxGeometry x="366" y="495.25" width="59.5" height="59.5" as="geometry" />
        </mxCell>
        <mxCell id="4MAXD7GSshLCcGs3XlZ2-348" value="" style="endArrow=none;dashed=1;html=1;rounded=0;" edge="1" parent="1" source="4MAXD7GSshLCcGs3XlZ2-345" target="4MAXD7GSshLCcGs3XlZ2-351">
          <mxGeometry width="50" height="50" relative="1" as="geometry">
            <mxPoint x="242.75" y="530" as="sourcePoint" />
            <mxPoint x="18.75" y="495" as="targetPoint" />
          </mxGeometry>
        </mxCell>
        <mxCell id="4MAXD7GSshLCcGs3XlZ2-351" value="" style="sketch=0;points=[[0,0,0],[0.25,0,0],[0.5,0,0],[0.75,0,0],[1,0,0],[0,1,0],[0.25,1,0],[0.5,1,0],[0.75,1,0],[1,1,0],[0,0.25,0],[0,0.5,0],[0,0.75,0],[1,0.25,0],[1,0.5,0],[1,0.75,0]];outlineConnect=0;fontColor=#232F3E;fillColor=#ED7100;strokeColor=#ffffff;dashed=0;verticalLabelPosition=bottom;verticalAlign=top;align=center;html=1;fontSize=12;fontStyle=0;aspect=fixed;shape=mxgraph.aws4.resourceIcon;resIcon=mxgraph.aws4.ec2;" vertex="1" parent="1">
          <mxGeometry x="227" y="486" width="78" height="78" as="geometry" />
        </mxCell>
        <mxCell id="4MAXD7GSshLCcGs3XlZ2-353" value="" style="sketch=0;points=[[0,0,0],[0.25,0,0],[0.5,0,0],[0.75,0,0],[1,0,0],[0,1,0],[0.25,1,0],[0.5,1,0],[0.75,1,0],[1,1,0],[0,0.25,0],[0,0.5,0],[0,0.75,0],[1,0.25,0],[1,0.5,0],[1,0.75,0]];outlineConnect=0;fontColor=#232F3E;fillColor=#7AA116;strokeColor=#ffffff;dashed=0;verticalLabelPosition=bottom;verticalAlign=top;align=center;html=1;fontSize=12;fontStyle=0;aspect=fixed;shape=mxgraph.aws4.resourceIcon;resIcon=mxgraph.aws4.elastic_block_store;" vertex="1" parent="1">
          <mxGeometry x="160.5" y="497.5" width="55" height="55" as="geometry" />
        </mxCell>
        <mxCell id="4MAXD7GSshLCcGs3XlZ2-370" value="" style="endArrow=none;dashed=1;html=1;rounded=0;" edge="1" parent="1" source="4MAXD7GSshLCcGs3XlZ2-351" target="4MAXD7GSshLCcGs3XlZ2-383">
          <mxGeometry width="50" height="50" relative="1" as="geometry">
            <mxPoint x="220" y="510" as="sourcePoint" />
            <mxPoint x="266" y="444" as="targetPoint" />
          </mxGeometry>
        </mxCell>
        <mxCell id="4MAXD7GSshLCcGs3XlZ2-373" value="Availability Zone" style="fillColor=none;strokeColor=#147EBA;dashed=1;verticalAlign=top;fontStyle=0;fontColor=#147EBA;whiteSpace=wrap;html=1;movable=1;resizable=1;rotatable=1;deletable=1;editable=1;locked=0;connectable=1;" vertex="1" parent="1">
          <mxGeometry x="120" y="150" width="340" height="530" as="geometry" />
        </mxCell>
        <mxCell id="4MAXD7GSshLCcGs3XlZ2-377" value="" style="fillColor=none;strokeColor=#5A6C86;dashed=1;verticalAlign=top;fontStyle=0;fontColor=#5A6C86;whiteSpace=wrap;html=1;" vertex="1" parent="1">
          <mxGeometry x="150" y="460" width="180" height="130" as="geometry" />
        </mxCell>
        <mxCell id="4MAXD7GSshLCcGs3XlZ2-383" value="" style="sketch=0;points=[[0,0,0],[0.25,0,0],[0.5,0,0],[0.75,0,0],[1,0,0],[0,1,0],[0.25,1,0],[0.5,1,0],[0.75,1,0],[1,1,0],[0,0.25,0],[0,0.5,0],[0,0.75,0],[1,0.25,0],[1,0.5,0],[1,0.75,0]];outlineConnect=0;fontColor=#232F3E;fillColor=#ED7100;strokeColor=#ffffff;dashed=0;verticalLabelPosition=bottom;verticalAlign=top;align=center;html=1;fontSize=12;fontStyle=0;aspect=fixed;shape=mxgraph.aws4.resourceIcon;resIcon=mxgraph.aws4.ec2;" vertex="1" parent="1">
          <mxGeometry x="227" y="268" width="78" height="78" as="geometry" />
        </mxCell>
        <mxCell id="4MAXD7GSshLCcGs3XlZ2-384" value="" style="sketch=0;points=[[0,0,0],[0.25,0,0],[0.5,0,0],[0.75,0,0],[1,0,0],[0,1,0],[0.25,1,0],[0.5,1,0],[0.75,1,0],[1,1,0],[0,0.25,0],[0,0.5,0],[0,0.75,0],[1,0.25,0],[1,0.5,0],[1,0.75,0]];outlineConnect=0;fontColor=#232F3E;fillColor=#7AA116;strokeColor=#ffffff;dashed=0;verticalLabelPosition=bottom;verticalAlign=top;align=center;html=1;fontSize=12;fontStyle=0;aspect=fixed;shape=mxgraph.aws4.resourceIcon;resIcon=mxgraph.aws4.elastic_block_store;" vertex="1" parent="1">
          <mxGeometry x="160.5" y="279.5" width="55" height="55" as="geometry" />
        </mxCell>
        <mxCell id="4MAXD7GSshLCcGs3XlZ2-389" value="" style="endArrow=none;dashed=1;html=1;rounded=0;entryX=0.5;entryY=0;entryDx=0;entryDy=0;entryPerimeter=0;" edge="1" parent="1" source="4MAXD7GSshLCcGs3XlZ2-390" target="4MAXD7GSshLCcGs3XlZ2-383">
          <mxGeometry width="50" height="50" relative="1" as="geometry">
            <mxPoint x="750" y="-120" as="sourcePoint" />
            <mxPoint x="480" y="100" as="targetPoint" />
          </mxGeometry>
        </mxCell>
        <mxCell id="4MAXD7GSshLCcGs3XlZ2-391" value="" style="fillColor=none;strokeColor=#5A6C86;dashed=1;verticalAlign=top;fontStyle=0;fontColor=#5A6C86;whiteSpace=wrap;html=1;" vertex="1" parent="1">
          <mxGeometry x="150" y="242" width="180" height="130" as="geometry" />
        </mxCell>
        <mxCell id="4MAXD7GSshLCcGs3XlZ2-392" value="" style="endArrow=none;dashed=1;html=1;rounded=0;" edge="1" parent="1" source="4MAXD7GSshLCcGs3XlZ2-390" target="4MAXD7GSshLCcGs3XlZ2-337">
          <mxGeometry width="50" height="50" relative="1" as="geometry">
            <mxPoint x="430" y="240" as="sourcePoint" />
            <mxPoint x="480" y="190" as="targetPoint" />
          </mxGeometry>
        </mxCell>
      </root>
    </mxGraphModel>
  </diagram>
</mxfile>
